<svg height="48" viewBox="0 0 48 48" width="48" xmlns="http://www.w3.org/2000/svg"><g fill="none" fill-rule="evenodd"><circle cx="24" cy="24" fill="#236" r="24"/><path d="m5 13.99411v-2.3470512h2v6.7082971l-6.29844926-2.5008549.73806589-1.8588326 1.64729937.6540747c-.7059248-1.4131316-1.086916-3.0011167-1.086916-4.6497431 0-5.51047152 4.24011023-10 9.5-10 5.2598898 0 9.5 4.48952848 9.5 10 0 5.5104715-4.2401102 10-9.5 10v-2c4.128951 0 7.5-3.569346 7.5-8 0-4.43065398-3.371049-8-7.5-8-4.12895098 0-7.5 3.56934602-7.5 8 0 1.4296251.35242874 2.7982573 1 3.99411z" fill="#fff" fill-rule="nonzero" transform="translate(13 14)"/></g></svg>