<svg height="24" viewBox="0 0 24 24" width="24" xmlns="http://www.w3.org/2000/svg"><g fill="none" fill-rule="evenodd"><circle cx="12" cy="12" fill="#68bf77" r="12"/><g fill="#fff"><path d="m12 19c3.8659932 0 7-3.1340068 7-7 0-3.86599325-3.1340068-7-7-7-3.86599325 0-7 3.13400675-7 7 0 1.2217174.31423358 2.4000734.90329126 3.4416411l1.74087823-.9845522c-.42029222-.7431578-.64416949-1.5826833-.64416949-2.4570889 0-2.76142375 2.23857625-5 5-5 2.7614237 0 5 2.23857625 5 5 0 2.7614237-2.2385763 5-5 5z" fill-rule="nonzero" transform="matrix(-.8660254 .5 -.5 -.8660254 28.392305 16.392305)"/><path d="m11 5h2v7h-2z"/></g></g></svg>